<svg width="32" height="34" viewBox="0 0 32 34" fill="none" xmlns="http://www.w3.org/2000/svg">
<g filter="url(#filter0_d_47_41)">
<path fill-rule="evenodd" clip-rule="evenodd" d="M18 2C23.52 2 28 6.49 28 12L27.9962 12.2798C27.8478 17.6706 23.4264 22 18 22C12.49 22 8 17.52 8 12C8 6.49 12.49 2 18 2ZM14 13.98C14.3 14.27 14.77 14.27 15.06 13.97L18 11.02L20.94 13.97C21.23 14.27 21.71 14.27 22 13.98C22.3 13.68 22.3 13.21 22 12.92L18.53 9.43C18.39 9.29 18.2 9.21 18 9.21C17.8 9.21 17.61 9.29 17.47 9.43L14 12.92C13.85 13.06 13.78 13.25 13.78 13.44C13.78 13.64 13.85 13.83 14 13.98Z" fill="url(#paint0_radial_47_41)"/>
</g>
<defs>
<filter id="filter0_d_47_41" x="0" y="0" width="32" height="34" filterUnits="userSpaceOnUse" color-interpolation-filters="sRGB">
<feFlood flood-opacity="0" result="BackgroundImageFix"/>
<feColorMatrix in="SourceAlpha" type="matrix" values="0 0 0 0 0 0 0 0 0 0 0 0 0 0 0 0 0 0 127 0" result="hardAlpha"/>
<feOffset dx="-2" dy="6"/>
<feGaussianBlur stdDeviation="2"/>
<feComposite in2="hardAlpha" operator="out"/>
<feColorMatrix type="matrix" values="0 0 0 0 0 0 0 0 0 0 0 0 0 0 0 0 0 0 0.16 0"/>
<feBlend mode="normal" in2="BackgroundImageFix" result="effect1_dropShadow_47_41"/>
<feBlend mode="normal" in="SourceGraphic" in2="effect1_dropShadow_47_41" result="shape"/>
</filter>
<radialGradient id="paint0_radial_47_41" cx="0" cy="0" r="1" gradientUnits="userSpaceOnUse" gradientTransform="translate(18 2.5) rotate(90) scale(19.5)">
<stop stop-color="white" stop-opacity="0.6"/>
<stop offset="1" stop-color="white" stop-opacity="0.6"/>
</radialGradient>
</defs>
</svg>
