<svg width="16" height="16" viewBox="0 0 16 16" fill="none" xmlns="http://www.w3.org/2000/svg">
<g clip-path="url(#clip0_47_22)">
<path d="M1 11.1777H5.29739C5.42599 12.0244 6.44407 12.6352 7.71936 12.6352C9.03751 12.6352 9.86269 12.1101 9.86269 11.3385C9.86269 10.7705 9.57334 10.4383 8.11587 9.98819L6.49766 9.49522C3.91494 8.7129 2.5432 7.31974 2.5432 5.20855C2.5432 2.05785 5.26524 0.000244141 9.01608 0.000244141C13.0027 0.000244141 15.4354 1.82208 15.4568 4.88705H11.3094C11.2773 3.96542 10.4092 3.35456 9.12324 3.35456C7.93369 3.35456 7.16209 3.8904 7.16209 4.61913C7.16209 5.2407 7.59076 5.66937 8.83389 6.03373L10.5271 6.5267C13.3027 7.33045 14.503 8.48785 14.503 10.7169C14.503 13.9748 11.7167 16.0002 7.63362 16.0002C3.46484 16.0002 1.01072 14.232 1 11.1777Z" fill="url(#paint0_linear_47_22)"/>
</g>
<defs>
<linearGradient id="paint0_linear_47_22" x1="8.2284" y1="0.000244141" x2="8.2284" y2="16.0002" gradientUnits="userSpaceOnUse">
<stop stop-color="#171717"/>
<stop offset="1" stop-color="#787881"/>
</linearGradient>
<clipPath id="clip0_47_22">
<rect width="16" height="16" fill="white"/>
</clipPath>
</defs>
</svg>
